<svg xmlns="http://www.w3.org/2000/svg" xmlns:xlink="http://www.w3.org/1999/xlink" id="Layer_1" x="0px" y="0px" width="1637.672px" height="1727.655px" viewBox="0 0 1637.672 1727.655" xml:space="preserve">
<g>
	<g>
		<g>
			<path fill-rule="evenodd" clip-rule="evenodd" fill="#202249" d="M1064.138,555.079c0.812,0.475,1.912,0.815,3.21,1.495     c4.227,10.169,5.826,13.154,4.991,14.168c-0.681,0.826-0.602,0.383-0.966,2.427c-0.495,2.788,9.279,14.855,10.788,18.682     c1.356,3.439,1.543,6.638,0.342,10.154c-2.143,6.275-5.765,12.417-10.411,17.644c-3.875,4.359-8.153,7.133-11.867,6.297     c-4.58-1.03-3.8-5.14-3.115-9.199c0.246-1.454,3.007-4.665,2.792-6.095c-1.225-8.142-7.181-15.246-11.554-22.297     c-3.754-3.493-10.069-7.164-13.57-11.204c-5.056-5.834-6.009-11.973,0.266-15.545c2.002-1.14,7.043-6.81,9.624-6.598     C1049.61,555.415,1057.887,551.423,1064.138,555.079z"></path>
			<linearGradient id="SVGID_1_" gradientUnits="userSpaceOnUse" x1="970.8091" y1="435.1665" x2="970.7879" y2="564.3492">
				<stop offset="0" style="stop-color:#324179"></stop>
				<stop offset="1" style="stop-color:#0C124D"></stop>
			</linearGradient>
			<path fill-rule="evenodd" clip-rule="evenodd" fill="url(#SVGID_1_)" d="M895.065,531.741     c-3.399,9.259-0.749,17.472,6.688,21.008c0.049,0.046,0.097,0.094,0.146,0.14c0.293,0.104,0.596,0.208,0.904,0.313     c0.77,0.303,1.584,0.561,2.441,0.769c8.902,2.64,22.213,5.041,30.35,6.594c32.464,6.199,80.835,10.068,103.555,18.738     c8.911-6.545,11.552-18.697,5.721-25.987c-24.78-11.808-58.255-27.149-72.291-32.35c-3.223-1.193-7.285-1.76-11.72-1.97     c20.913-18.856,43.062-39.28,51.667-56.689c6.091-12.322,7.073-29.431,11.313-40.138c-34.137,9.992-40.674-10.605-46.945-17.85     c-5.377,7.882-5.248,6.424-10.691,14.853c-18.408,28.503-45.547,68.915-64.006,98.931     C899.156,522.393,896.262,527.414,895.065,531.741z"></path>
			<path opacity="0.3" fill-rule="evenodd" clip-rule="evenodd" fill="#1E2353" d="M1006.461,535.462     c-13.924-6.299-26.554-11.78-33.883-14.496c-3.223-1.193-7.285-1.76-11.72-1.97c20.913-18.856,43.062-39.28,51.667-56.689     c6.091-12.322,7.073-29.431,11.313-40.138c-9.617,2.815-17.043,3.203-22.89,2.144l0.919,6.667     c-26.34,26.228-74.244,87.179-78.699,126.981c16.102,3.75,60.082,9.393,67.135,10.184     C992.141,556.339,999.854,546.929,1006.461,535.462L1006.461,535.462z M982.455,412.088c-2.214-2.982-3.896-5.846-5.562-7.769     c-3.422,5.018-4.614,6.25-6.432,8.657L982.455,412.088z"></path>
			<path fill-rule="evenodd" clip-rule="evenodd" fill="#202249" d="M1002.208,687.242c4.793,6.649-8.137,40.023-11.286,47.051     c-2.776,6.197-1.893,10,4.678,10.098c5.176,0.078,13.396-7.258,18.405-12.056c9.396-9.001,9.935-18.171,12.66-22.078l3.201-1.026     c2.336-1.324,9.266-10.357,9.638-13.778c-0.746-2.312-2.092-6.306-3.565-9.295c-5.109-9.435-6.232-5.309-12.965-11.076     C1015.286,680.646,1020.736,682.871,1002.208,687.242z"></path>
			<linearGradient id="SVGID_2_" gradientUnits="userSpaceOnUse" x1="992.3159" y1="443.4111" x2="992.2284" y2="663.4649">
				<stop offset="0" style="stop-color:#324179"></stop>
				<stop offset="1" style="stop-color:#0C124D"></stop>
			</linearGradient>
			<path fill-rule="evenodd" clip-rule="evenodd" fill="url(#SVGID_2_)" d="M940.901,572.863     c14.024,27.15,48.905,88.372,61.225,115.589c10.863,2.292,21.877-4.053,22.831-12.596c-7.929-26.094-20.8-69.056-27.161-82.754     c-4.2-9.051-12.046-21.126-19.13-30.336c20.724-28.993,53.554-74.636,63.032-101.391c12.897-36.398-1.905-57.169-21.781-68.606     c-7.063-4.063-14.67,2.454-18.26-1.901c-8.481,16.555-16.143,39.06-21.107,59.315c-6.923,28.242-39.926,88.174-42.422,108.326     c-0.317,4.176,0.348,8.133,1.982,11.4C940.317,570.865,940.574,571.846,940.901,572.863z"></path>
		</g>
		<path opacity="0.3" fill-rule="evenodd" clip-rule="evenodd" fill="#955CF1" d="M1496.921,1652.718l-954.618-536.93    c-12.048-5.488-29.757-10.66-41.574-3.443l-30.238,18.463c-6.081,3.713-26.084,16.043-12.707,23.299    c39.363,21.35,920.815,519.896,960.785,541.584c7.559,4.104,18.621,5.574,30.228,4.594c11.558-0.975,23.559-4.119,32.739-9.795    l12.079-7.463c8.538-5.277,13.268-11.037,13.723-16.555C1507.781,1661.08,1504.317,1656.085,1496.921,1652.718z"></path>
		<g>
			<linearGradient id="SVGID_3_" gradientUnits="userSpaceOnUse" x1="1095.8364" y1="661.2539" x2="957.2899" y2="1502.1536">
				<stop offset="0" style="stop-color:#D1E8FF"></stop>
				<stop offset="1" style="stop-color:#EAEFFF"></stop>
			</linearGradient>
			<path fill-rule="evenodd" clip-rule="evenodd" fill="url(#SVGID_3_)" d="M651.813,240.911c-6.58-3.736-14.294-5.126-21.519-2.402     l-16.153,6.312c-5.864,30.356,831.848,1423.074,839.34,1430.794l14.419-5.441c9.466-3.727,14.432-13.584,15.821-23.16     l121.731-830.944c0.009-0.034,0.015-0.066,0.015-0.092c1.982-13.976-2.218-28.523-9.901-40.197     c-4.138-6.292-9.576-12.058-16.261-15.68L651.813,240.911z"></path>
			<linearGradient id="SVGID_4_" gradientUnits="userSpaceOnUse" x1="1176.2544" y1="502.1138" x2="852.9427" y2="1537.8173">
				<stop offset="0" style="stop-color:#6D6AFE"></stop>
				<stop offset="1" style="stop-color:#3FB0F7"></stop>
			</linearGradient>
			<path fill-rule="evenodd" clip-rule="evenodd" fill="url(#SVGID_4_)" d="M1563.37,766.247L635.888,247.06     c-17.543-9.721-34.247-0.389-37.346,20.774l-121.734,830.945c-3.099,21.162,8.563,46.221,26.104,55.941l927.487,519.188     c17.542,9.723,34.286,0.412,37.384-20.746l121.735-830.951C1592.621,801.054,1580.909,775.972,1563.37,766.247z"></path>
			<g>
				<path fill-rule="evenodd" clip-rule="evenodd" fill="#4A9FF8" d="M1563.37,766.248L635.888,247.06      c-17.543-9.721-34.247-0.389-37.345,20.772l-4.105,28.021l990.93,554.704l4.151-28.348      C1592.621,801.054,1580.911,775.972,1563.37,766.248z"></path>
				<g>
					<path fill-rule="evenodd" clip-rule="evenodd" fill="#5858F0" d="M630.122,267.744c7.035,1.609,12.438,9.985,12.066,18.707       c-0.369,8.722-6.37,14.489-13.404,12.878c-7.034-1.609-12.437-9.984-12.066-18.707       C617.086,271.901,623.088,266.134,630.122,267.744z"></path>
					<path fill-rule="evenodd" clip-rule="evenodd" fill="#5858F0" d="M662.152,286.14c7.034,1.608,12.437,9.984,12.067,18.706       c-0.37,8.722-6.373,14.489-13.406,12.88c-7.033-1.609-12.437-9.984-12.066-18.707       C649.118,290.296,655.119,284.531,662.152,286.14z"></path>
					<path fill-rule="evenodd" clip-rule="evenodd" fill="#5858F0" d="M696.81,306.345c7.034,1.609,12.436,9.985,12.067,18.707       c-0.37,8.721-6.371,14.487-13.406,12.878c-7.033-1.609-12.436-9.984-12.065-18.707       C683.775,310.501,689.777,304.736,696.81,306.345z"></path>
				</g>
			</g>
		</g>
		<linearGradient id="SVGID_5_" gradientUnits="userSpaceOnUse" x1="1325.0034" y1="1178.7798" x2="1406.5994" y2="1007.1718">
			<stop offset="0" style="stop-color:#965CF2"></stop>
			<stop offset="1" style="stop-color:#FF8ADC"></stop>
		</linearGradient>
		<path opacity="0.5" fill-rule="evenodd" clip-rule="evenodd" fill="url(#SVGID_5_)" d="M1450.575,1054.314l-166.609-91.468    c-9.665-5.355-19.126-6.111-27.032-3.031c-10.135,3.947-17.717,14.199-19.905,29.14l-18.885,135.492    c-3.896,26.596,10.763,58.088,32.806,70.311l166.616,91.467c22.053,12.219,43.092,0.516,46.989-26.074l18.88-135.5    C1487.336,1098.06,1472.617,1066.533,1450.575,1054.314z"></path>
		<linearGradient id="SVGID_6_" gradientUnits="userSpaceOnUse" x1="1314.439" y1="875.249" x2="1465.5978" y2="654.4392">
			<stop offset="0" style="stop-color:#965CF2"></stop>
			<stop offset="1" style="stop-color:#FF8ADC"></stop>
		</linearGradient>
		<path opacity="0.5" fill-rule="evenodd" clip-rule="evenodd" fill="url(#SVGID_6_)" d="M1206.68,577.766l365.311,178.176    l-9.675,9.881l-35.063,245.069c-3.579,25.137-22.705,36.279-42.673,24.855l-341.944-195.505l-29.697-66.252L1206.68,577.766z"></path>
		<g>
			<linearGradient id="SVGID_7_" gradientUnits="userSpaceOnUse" x1="603.1548" y1="1100.3423" x2="697.9275" y2="893.6401">
				<stop offset="0" style="stop-color:#965CF2"></stop>
				<stop offset="1" style="stop-color:#FF8ADC"></stop>
			</linearGradient>
			<path opacity="0.5" fill-rule="evenodd" clip-rule="evenodd" fill="url(#SVGID_7_)" d="M747.941,955.874L522.088,830.68     l-7.552,11.525l-37.084,252.603l233.927,129.666c24.761,13.719,48.389,0.58,52.764-29.277l20.699-160.344     C789.223,1004.996,772.697,969.594,747.941,955.874z"></path>
			<g>
				<g>
					<path fill-rule="evenodd" clip-rule="evenodd" fill="#D0E7FF" d="M737.948,1011.261l-26.981,177.266l4.281,0.52l11.68-4.535       c12.808-5.045,19.53-18.381,21.405-31.34l19.849-153.715c0.009-0.045,0.019-0.09,0.019-0.125       c2.683-18.909-2.998-38.593-13.398-54.39c-5.595-8.514-12.957-16.314-22-21.215L264.667,664.241       c-8.906-5.057-19.342-6.938-29.114-3.252l-10.298,4.022c-5.182,1.948-6.785,3.504-6.752,3.828       C223.362,714.141,744.768,964.795,737.948,1011.261z"></path>
					<linearGradient id="SVGID_8_" gradientUnits="userSpaceOnUse" x1="487.6597" y1="875.2153" x2="450.1175" y2="982.8361">
						<stop offset="0" style="stop-color:#1C8EF4"></stop>
						<stop offset="1" style="stop-color:#00CFDD"></stop>
					</linearGradient>
					<path fill-rule="evenodd" clip-rule="evenodd" fill="url(#SVGID_8_)" d="M721.018,928.36L252.896,668.874       c-10.404-5.765-20.591-6.579-29.103-3.263c-10.91,4.249-19.073,15.286-21.429,31.369L182.52,850.699       c-4.198,28.634,11.584,62.539,35.315,75.694l468.13,259.487c23.739,13.152,46.391,0.555,50.587-28.07l19.845-153.727       C760.596,975.458,744.751,941.516,721.018,928.36z"></path>
				</g>
				<g>
					<path opacity="0.5" fill-rule="evenodd" clip-rule="evenodd" fill="#FFFCF1" d="M715.464,976.2L392.395,798.5       c-2.488-1.376-4.926-1.574-6.959-0.776c-2.606,1.011-4.557,3.653-5.121,7.498l-1.782,10.787       c-1.003,6.843,2.77,14.95,8.44,18.093L710.047,1011.8c5.676,3.143,11.09,0.131,12.092-6.711l1.783-10.791       C724.928,987.458,721.139,979.344,715.464,976.2L715.464,976.2z M535.554,1017.998c5.673,3.143,9.46,11.256,8.456,18.1       l-1.783,10.791c-1.003,6.842-6.414,9.852-12.093,6.709l-162.481-87.46c-5.673-3.143-9.445-11.252-8.442-18.092l1.782-10.785       c0.564-3.846,2.516-6.488,5.123-7.502c2.035-0.793,4.469-0.6,6.957,0.777L535.554,1017.998L535.554,1017.998z        M705.804,1042.218c5.674,3.143,9.464,11.258,8.456,18.098l-1.781,10.789c-1.002,6.846-6.417,9.855-12.094,6.715       L377.313,900.119c-5.673-3.141-9.445-11.253-8.443-18.091l1.785-10.788c0.563-3.846,2.516-6.488,5.12-7.5       c2.034-0.796,4.472-0.6,6.96,0.775L705.804,1042.218z"></path>
					<path opacity="0.5" fill-rule="evenodd" clip-rule="evenodd" fill="#FFFCF1" d="M289.432,795.357       c-15.275-8.469-31.481,2.954-31.315,25.058c0.073,11.445,4.926,23.22,12.584,30.604c2.015,1.937,4.097,3.476,6.19,4.639       c15.249,8.451,31.379-2.964,31.263-24.966c-0.025-11.463-4.859-23.293-12.479-30.653       C293.639,798.084,291.545,796.532,289.432,795.357L289.432,795.357z M274.711,866.038c-2.813-1.559-5.6-3.622-8.31-6.217       c-10.319-9.905-16.778-25.769-16.932-41.166c-0.182-29.648,21.565-45.056,42.099-33.677c2.854,1.582,5.68,3.675,8.426,6.331       c10.283,9.881,16.743,25.747,16.811,41.147C316.932,862.026,295.215,877.404,274.711,866.038L274.711,866.038z        M344.656,840.846c3.573,1.984,5.706,7.184,4.736,11.664l-3.731,17.369c-0.957,4.426-4.627,6.412-8.206,4.432l-1.828-1.017       c-2.739-1.514-5.631-0.693-7.231,1.997c-1.041,1.737-2.149,3.38-3.324,4.932c-1.862,2.44-2.168,6.344-0.742,9.832l0.961,2.355       c1.84,4.487,0.738,9.604-2.435,11.32l-12.577,6.794c-1.608,0.87-3.434,0.735-5.096-0.184c-1.656-0.919-3.148-2.625-4.08-4.908       l-0.974-2.301c-0.907-2.215-2.367-3.914-4.043-4.845c-0.961-0.53-1.989-0.805-3.019-0.773       c-1.777,0.006-3.585-0.062-5.375-0.226c-2.873-0.274-5.271,1.76-6.003,5.156l-0.479,2.266       c-0.957,4.426-4.629,6.409-8.208,4.432l-14.021-7.773c-3.58-1.985-5.705-7.184-4.755-11.616l0.487-2.259       c0.73-3.397-0.371-7.368-2.739-10.002c-1.511-1.663-2.918-3.379-4.316-5.144c-0.798-1.048-1.711-1.853-2.673-2.387       c-1.668-0.925-3.476-1.036-5.047-0.189l-1.645,0.845c-1.613,0.871-3.439,0.744-5.101-0.175c-1.657-0.92-3.149-2.63-4.08-4.907       l-7.286-17.808c-1.833-4.485-0.73-9.604,2.435-11.317l1.662-0.901c2.467-1.332,3.727-4.705,3.202-8.468       c-0.336-2.387-0.572-4.777-0.723-7.178c-0.228-3.7-2.188-7.214-4.926-8.729l-1.828-1.017c-3.578-1.98-5.704-7.177-4.754-11.61       l3.737-17.368c0.964-4.482,4.639-6.467,8.213-4.482l1.828,1.013c2.745,1.521,5.63,0.7,7.231-1.993       c1.041-1.741,2.148-3.384,3.33-4.929c1.851-2.395,2.155-6.297,0.725-9.791l-0.961-2.35c-1.821-4.535-0.732-9.606,2.445-11.366       l12.577-6.801c1.613-0.863,3.44-0.735,5.097,0.182c1.662,0.92,3.147,2.631,4.084,4.909l0.963,2.348       c0.907,2.217,2.368,3.921,4.043,4.847c0.955,0.535,1.984,0.81,3.02,0.778c1.79-0.055,3.598,0.012,5.381,0.176       c2.867,0.322,5.26-1.71,5.992-5.105l0.486-2.267c0.961-4.479,4.639-6.463,8.213-4.479l14.025,7.774       c3.574,1.984,5.704,7.184,4.735,11.657l-0.487,2.267c-0.729,3.396,0.371,7.364,2.718,9.929       c1.509,1.662,2.957,3.403,4.345,5.218c0.799,1.046,1.713,1.85,2.674,2.378c1.668,0.926,3.477,1.036,5.041,0.19l1.661-0.896       c1.613-0.87,3.438-0.736,5.096,0.184c1.662,0.92,3.148,2.623,4.085,4.906l7.281,17.806c1.827,4.536,0.736,9.607-2.44,11.366       l-1.661,0.896c-2.467,1.334-3.726,4.711-3.191,8.425c0.327,2.386,0.573,4.78,0.725,7.171c0.225,3.709,2.18,7.215,4.925,8.736       L344.656,840.846z"></path>
				</g>
			</g>
		</g>
		<g>
			<linearGradient id="SVGID_9_" gradientUnits="userSpaceOnUse" x1="615.2314" y1="576.2446" x2="691.9875" y2="319.5341">
				<stop offset="0" style="stop-color:#965CF2"></stop>
				<stop offset="1" style="stop-color:#FF8ADC"></stop>
			</linearGradient>
			<path opacity="0.5" fill-rule="evenodd" clip-rule="evenodd" fill="url(#SVGID_9_)" d="M695.129,369.676l-101.031-48.841     L554.221,570.36l-5.133,35.058l105.05,56.686c18.252,10.111,35.67,0.424,38.894-21.587l29.299-212.613     C725.563,405.888,713.378,379.791,695.129,369.676z"></path>
			<g>
				<path fill-rule="evenodd" clip-rule="evenodd" fill="#D0E7FF" d="M682.813,429.015L651.33,632.412l3.294,0.401l8.981-3.489      c9.847-3.877,15.015-14.131,16.458-24.098l25.998-185.287c0.006-0.035,0.013-0.072,0.013-0.099      c2.064-14.54-2.308-29.675-10.302-41.821c-4.303-6.547-9.964-12.544-16.918-16.313L485.645,256.712      c-6.85-3.888-14.876-5.334-22.391-2.501l-7.918,3.094c-3.985,1.498-5.218,2.697-5.19,2.942      C453.878,295.083,688.056,393.283,682.813,429.015z"></path>
				<linearGradient id="SVGID_10_" gradientUnits="userSpaceOnUse" x1="593.2002" y1="317.7964" x2="505.7093" y2="605.1699">
					<stop offset="0" style="stop-color:#6D6AFE"></stop>
					<stop offset="1" style="stop-color:#3FB0F7"></stop>
				</linearGradient>
				<path fill-rule="evenodd" clip-rule="evenodd" fill="url(#SVGID_10_)" d="M669.794,365.27L476.592,260.274      c-8-4.433-15.833-5.058-22.379-2.509c-8.389,3.267-14.666,11.755-16.477,24.123L411.739,467.18      c-3.226,22.018,8.91,48.086,27.158,58.205L632.109,630.38c18.25,10.113,35.67,0.425,38.894-21.586l25.993-185.296      C700.228,401.483,688.042,375.385,669.794,365.27z"></path>
				<path fill-rule="evenodd" clip-rule="evenodd" fill="#FFFCF1" d="M634.002,580.791L439.898,476.604      c-4.48-2.404-8.756,0.071-9.624,5.628c-0.845,5.374,2.065,11.699,6.544,14.11l194.096,104.184      c4.479,2.408,8.841-0.035,9.71-5.593C641.457,589.574,638.473,583.197,634.002,580.791L634.002,580.791z M642.679,524.388      c4.47,2.406,7.453,8.783,6.62,14.142c-0.868,5.559-5.231,8.001-9.709,5.594L445.494,439.938      c-4.478-2.41-7.388-8.734-6.542-14.108c0.868-5.557,5.143-8.032,9.623-5.627L642.679,524.388L642.679,524.388z M662.647,396.484      L468.542,292.299c-4.472-2.41-8.755,0.07-9.588,5.439l-2.164,13.796c-0.832,5.37,2.078,11.699,6.548,14.104l194.104,104.187      c4.469,2.396,8.828-0.034,9.674-5.404l2.148-13.797C670.114,405.267,667.116,398.892,662.647,396.484L662.647,396.484z       M651.411,468.432c4.47,2.404,7.471,8.687,6.639,14.055c-0.891,5.657-5.231,7.992-9.7,5.586L454.245,383.886      c-4.479-2.396-7.397-8.641-6.565-14c0.891-5.652,5.157-8.034,9.628-5.641L651.411,468.432z"></path>
			</g>
		</g>
		<g>
			<path fill-rule="evenodd" clip-rule="evenodd" fill="#D0E7FF" d="M1441.777,1117.429l-22.966,141.656l3.58,0.434l9.768-3.793     c10.708-4.217,16.326-15.367,17.896-26.203l17.002-121.965c0.007-0.037,0.016-0.076,0.016-0.105     c2.243-15.811-2.508-32.268-11.203-45.477c-4.68-7.119-10.835-13.643-18.396-17.74l-149.986-82.335     c-7.448-4.229-16.175-5.801-24.346-2.721l-8.61,3.365c-4.333,1.629-5.673,2.93-5.646,3.199     C1252.947,1003.625,1447.478,1078.576,1441.777,1117.429z"></path>
			<path fill-rule="evenodd" clip-rule="evenodd" fill="#FFFFFF" d="M1427.621,1048.113l-149.978-82.339     c-8.699-4.82-17.217-5.5-24.333-2.729c-9.124,3.553-15.948,12.783-17.918,26.231l-17.001,121.967     c-3.508,23.941,9.688,52.291,29.531,63.293l149.985,82.338c19.852,10.998,38.79,0.465,42.298-23.473l16.996-121.975     C1460.714,1087.492,1447.465,1059.113,1427.621,1048.113z"></path>
			<linearGradient id="SVGID_11_" gradientUnits="userSpaceOnUse" x1="1331.7026" y1="1123.1899" x2="1357.3708" y2="1073.3362">
				<stop offset="0" style="stop-color:#965CF2"></stop>
				<stop offset="1" style="stop-color:#FF8ADC"></stop>
			</linearGradient>
			<path fill-rule="evenodd" clip-rule="evenodd" fill="url(#SVGID_11_)" d="M1362.286,1056.57c1.121,2.246,1.528,4.51,1.237,6.979     c-0.21,1.768-1.155,4.785-2.725,8.93l-31.958,88.76c-1.033,2.965-1.978,5.223-2.661,6.844c-0.778,1.643-1.669,2.646-2.892,3.1     c-1.106,0.492-2.637,0.154-4.612-1.068c-4.793-2.963-6.911-7.158-6.308-12.24c0.16-1.344,1.016-4.414,2.642-9.254l31.872-88.807     c1.635-4.713,3.075-7.764,4.289-9.176c1.159-1.443,3.169-1.26,5.863,0.406C1359.469,1052.548,1361.196,1054.339,1362.286,1056.57     L1362.286,1056.57z M1370.816,1079.626l-2.926,24.684l47.216,54.766l-52.925-6.701l-2.939,24.791l76.16,5.955l2.492-21.012     L1370.816,1079.626L1370.816,1079.626z M1237.697,1060.794l67.099,82.57l2.939-24.791l-46.992-55.117l52.685,7.158l2.968-25.002     l-76.176-6.08L1237.697,1060.794z"></path>
		</g>
		<g>
			<g>
				<path fill-rule="evenodd" clip-rule="evenodd" fill="#FFFFFF" d="M852.893,1062.144c2.696-18.438,16.739-26.586,31.363-18.158      l217.383,122.578c14.606,8.418,24.285,30.227,21.588,48.664l-28.915,196.779c-2.696,18.438-16.756,26.576-31.366,18.16      l-217.38-122.578c-14.628-8.428-24.286-30.23-21.59-48.666L852.893,1062.144z"></path>
				<g>
					<g>
						<linearGradient id="SVGID_12_" gradientUnits="userSpaceOnUse" x1="1022.7612" y1="1198.3345" x2="961.0051" y2="1294.4116">
							<stop offset="0" style="stop-color:#FF66BC"></stop>
							<stop offset="0.56" style="stop-color:#FF8ADC"></stop>
							<stop offset="1" style="stop-color:#FFBBA8"></stop>
						</linearGradient>
						<polygon fill-rule="evenodd" clip-rule="evenodd" fill="url(#SVGID_12_)" points="879.343,1262.728 955.174,1157.691         969.876,1269.076 1006.817,1228.919 1028.572,1348.025       "></polygon>
						<path fill-rule="evenodd" clip-rule="evenodd" fill="#FFDB59" d="M1004.262,1162.351c8.108,1.652,14.214,11.145,13.635,21.201        c-0.579,10.059-7.622,16.873-15.73,15.221c-8.109-1.65-14.215-11.143-13.636-21.199        C989.11,1167.515,996.153,1160.701,1004.262,1162.351z"></path>
					</g>
					<linearGradient id="SVGID_13_" gradientUnits="userSpaceOnUse" x1="1039.3481" y1="1232.7095" x2="878.3215" y2="1239.6243">
						<stop offset="0" style="stop-color:#FF66BC"></stop>
						<stop offset="0.56" style="stop-color:#FF8ADC"></stop>
						<stop offset="1" style="stop-color:#FFBBA8"></stop>
					</linearGradient>
					<path opacity="0.2" fill-rule="evenodd" clip-rule="evenodd" fill="url(#SVGID_13_)" d="M870.551,1090.306       c2.241-15.32,13.908-22.092,26.061-15.088l180.619,101.848c12.138,6.996,20.178,25.115,17.938,40.438l-24.024,163.498       c-2.241,15.318-13.923,22.082-26.063,15.09l-180.617-101.848c-12.152-7.002-20.18-25.119-17.939-40.438L870.551,1090.306z"></path>
				</g>
			</g>
			<g>
				<path fill-rule="evenodd" clip-rule="evenodd" fill="#FFFFFF" d="M1146.262,1232.535c2.698-18.439,16.74-26.586,31.364-18.158      l217.382,122.576c14.609,8.418,24.285,30.229,21.589,48.666l-28.914,196.777c-2.698,18.438-16.756,26.576-31.367,18.16      l-217.38-122.578c-14.627-8.428-24.287-30.229-21.59-48.664L1146.262,1232.535z"></path>
				<g>
					<g>
						<linearGradient id="SVGID_14_" gradientUnits="userSpaceOnUse" x1="1260.147" y1="1440.5425" x2="1289.8589" y2="1358.8895">
							<stop offset="0" style="stop-color:#965CF2"></stop>
							<stop offset="1" style="stop-color:#FF8ADC"></stop>
						</linearGradient>
						<polygon fill-rule="evenodd" clip-rule="evenodd" fill="url(#SVGID_14_)" points="1172.714,1433.119 1248.543,1328.082         1263.248,1439.466 1300.189,1399.308 1321.944,1518.416       "></polygon>
						<path fill-rule="evenodd" clip-rule="evenodd" fill="#FFDB59" d="M1297.632,1332.742c8.108,1.65,14.213,11.143,13.634,21.201        c-0.579,10.057-7.621,16.871-15.729,15.221c-8.11-1.652-14.214-11.143-13.634-21.201        C1282.48,1337.904,1289.522,1331.089,1297.632,1332.742z"></path>
					</g>
					<linearGradient id="SVGID_15_" gradientUnits="userSpaceOnUse" x1="1267.8687" y1="1474.5298" x2="1257.015" y2="1271.0381">
						<stop offset="0" style="stop-color:#965CF2"></stop>
						<stop offset="1" style="stop-color:#FF8ADC"></stop>
					</linearGradient>
					<path opacity="0.2" fill-rule="evenodd" clip-rule="evenodd" fill="url(#SVGID_15_)" d="M1163.922,1260.695       c2.239-15.318,13.907-22.09,26.059-15.086l180.62,101.848c12.138,6.994,20.178,25.115,17.938,40.436l-24.026,163.5       c-2.239,15.318-13.921,22.082-26.062,15.088l-180.618-101.848c-12.153-7.002-20.179-25.117-17.938-40.436L1163.922,1260.695z"></path>
				</g>
			</g>
		</g>
		<g>
			<linearGradient id="SVGID_16_" gradientUnits="userSpaceOnUse" x1="866.6157" y1="237.4556" x2="866.8222" y2="383.3664">
				<stop offset="0" style="stop-color:#5A2D68"></stop>
				<stop offset="1" style="stop-color:#22043D"></stop>
			</linearGradient>
			<path fill-rule="evenodd" clip-rule="evenodd" fill="url(#SVGID_16_)" d="M817.585,243.518     c-19.347,11.356-10.077,37.593,7.501,65.331c24.944,39.354-35.426,83.651,46.631,106.061     c-8.549-24.016,27.012-32.806,44.485-65.604c20.16-37.841,8.981-75.798-16.917-108.123     C878.196,214.858,839.615,215.195,817.585,243.518z"></path>
			<g>
				<linearGradient id="SVGID_17_" gradientUnits="userSpaceOnUse" x1="870.7007" y1="486.6455" x2="864.4435" y2="484.4223">
					<stop offset="0" style="stop-color:#FF8A78"></stop>
					<stop offset="1" style="stop-color:#FFA799"></stop>
				</linearGradient>
				<path fill-rule="evenodd" clip-rule="evenodd" fill="url(#SVGID_17_)" d="M855.895,492.193l4.732,17.836      c1.485,3.823,2.378,4.851,7.867,2.375c2.996-1.455,2.055-7.701,1.225-12.259c-0.913-5.019-0.354-9.365,0.205-11.262      c0.642-2.176,1.988-3.52,3.445-4.69c3.277-2.634,7.115-4.394,4.754-12.763c-1.232-4.371-0.936-7.625-1.028-12.163l-11.435-0.752      c0.262,10.201-4.268,17.082-8.989,25.666C854.388,488.332,854.889,487.553,855.895,492.193z"></path>
				<g>
					<linearGradient id="SVGID_18_" gradientUnits="userSpaceOnUse" x1="873.7192" y1="436.9761" x2="872.8456" y2="311.6884">
						<stop offset="0" style="stop-color:#965CF2"></stop>
						<stop offset="1" style="stop-color:#FF8ADC"></stop>
					</linearGradient>
					<path fill-rule="evenodd" clip-rule="evenodd" fill="url(#SVGID_18_)" d="M896.608,378.965l-0.084-0.572       c-0.012-0.825-0.137-1.646-0.361-2.455c-2.902-19.399-8.809-52.09-13.408-69.142c-8.03-29.773-33.508-19.483-33.246-1.715       c0.25,16.811,15.887,53.213,19.488,68.985c-1.283,11.491-6.078,68.879-4.418,78.902c0.316,1.911,1.153,3.153,1.061,5.255       c-0.07,1.593-0.501,2.229-0.973,4.145c4.502,0.597,9.002,1.234,13.429,2.276c0.173-1.234,0.267-3.327,0.67-4.466       c0.769-2.16,2.75-3.264,3.643-5.094c4.393-8.989,11.653-56.164,13.652-71.518C896.401,382.239,896.595,380.712,896.608,378.965       z"></path>
					<path opacity="0.35" fill-rule="evenodd" clip-rule="evenodd" fill="#3469C0" d="M893.28,397.119       c1.707-4.118,3.637-16.964,3.617-22.66c-0.042-11.824-4.508-21.606-5.893-29.116l-41.313-41.123       c0.262,7.702,9.25,28.218,12.933,43.364C868.37,371.215,880.877,391.563,893.28,397.119z"></path>
				</g>
			</g>
			<linearGradient id="SVGID_19_" gradientUnits="userSpaceOnUse" x1="953.4468" y1="408.2954" x2="923.5485" y2="313.2064">
				<stop offset="0" style="stop-color:#965CF2"></stop>
				<stop offset="1" style="stop-color:#FF8ADC"></stop>
			</linearGradient>
			<path fill-rule="evenodd" clip-rule="evenodd" fill="url(#SVGID_19_)" d="M1021.083,399.922     c-5.825,19.255-33.174,34.432-60.576,28.399c-6.543-7.275-8.485-5.014-14.47-10.881c-5.446-5.34-12.167-12.64-21.573-22.178     c-5.229-8.206-25.852-11.563-34.95-15.133c-10.282-4.034-19.403-12.437-23.653-28.768c-2.061-7.92-11.036-32.154-14.264-40.232     c-9.33-23.353,10.908-32.08,24.598-23.435c8.766,3.657,28.094,8.249,37.646,10.03c5.703,1.064,9.252,1.762,16.701,2.483     c11.372,1.099,23.721,9.399,32.548,16.43C986.819,335.534,1019.001,373.514,1021.083,399.922z"></path>
			<g>
				<linearGradient id="SVGID_20_" gradientUnits="userSpaceOnUse" x1="879.6782" y1="300.2368" x2="887.2434" y2="309.4338">
					<stop offset="0" style="stop-color:#FF8A78"></stop>
					<stop offset="1" style="stop-color:#FFA799"></stop>
				</linearGradient>
				<path fill-rule="evenodd" clip-rule="evenodd" fill="url(#SVGID_20_)" d="M883.716,278.275      c2.499,10.174,8.411,19.948,16.293,27.482c-2.897,10.366-22.685,17.839-28.981,10.834c-0.488-1.386-1.15-4.495-1.833-5.496      c-1.038-3.04-2.072-5.707-2.959-7.839L883.716,278.275z"></path>
				<g>
					<path fill-rule="evenodd" clip-rule="evenodd" fill="#FFA698" d="M826.252,264.414c0.971,7.877,3.48,14.523,10.275,21.306       c1.729,1.724,2.417,3.126,2.863,4.76c2.574,9.414,4.6,11.334,10.637,15.638c5.871,4.186,8.069,7.083,11.416,7.435       c3.436,0.36,6.615-1.504,9.133-3.305c5.156-3.691,10.938-13.793,13.65-20.462c2.011-4.945,0.764-6.187-0.51-10.877       c1.488-8.631-4.48-9.178-6.469-8.111c-5.701,3.06-1.873,9.377-3.766,13.01C853.442,288.233,832.71,270.265,826.252,264.414z"></path>
					<path fill-rule="evenodd" clip-rule="evenodd" fill="#FF9080" d="M826.252,264.414c11.133,18.534,35.642,23.214,47.23,19.394       C853.442,288.233,832.71,270.265,826.252,264.414z"></path>
				</g>
			</g>
			<path opacity="0.35" fill-rule="evenodd" clip-rule="evenodd" fill="#3469C0" d="M955.823,423.564     c-0.165,0.043-0.334,0.075-0.505,0.099c-3.029-2.003-5.228-2.249-9.281-6.223c-5.446-5.34-12.167-12.64-21.573-22.178     c-2.666-4.182-9.329-7.104-16.426-9.438c1.121-19.172,0.625-62.985,6.913-68.686c8.674-7.866,20.61-13.096,30.575-2.858     C964.335,333.605,945.61,405.132,955.823,423.564z"></path>
			<g>
				<polygon fill-rule="evenodd" clip-rule="evenodd" fill="#4A9FF8" points="929.293,449.322 917.379,404.492 925.614,397.156       1000.809,439.359 993.813,447.205 961.151,469.059     "></polygon>
				<path fill-rule="evenodd" clip-rule="evenodd" fill="#D0E7FF" d="M917.414,404.618l-5.481-17.5      c31.279,17.362,62.559,34.724,93.839,52.085l-12.088,8.089L917.414,404.618z"></path>
			</g>
		</g>
		<g>
			<linearGradient id="SVGID_21_" gradientUnits="userSpaceOnUse" x1="986.8862" y1="977.3286" x2="841.2144" y2="404.2685">
				<stop offset="0" style="stop-color:#965CF2"></stop>
				<stop offset="1" style="stop-color:#FF8ADC"></stop>
			</linearGradient>
			<path opacity="0.5" fill-rule="evenodd" clip-rule="evenodd" fill="url(#SVGID_21_)" d="M763.752,510.688     c4.868-35.918,32.119-51.385,60.861-34.469l296.866,173.331c28.713,16.899,48.085,59.789,43.218,95.708l-45.246,342.385     c-4.867,35.914-32.151,51.365-60.869,34.469L761.725,948.778c-28.75-16.914-48.09-59.789-43.223-95.703L763.752,510.688z"></path>
			<g>
				<path fill-rule="evenodd" clip-rule="evenodd" fill="#D0E7FF" d="M774.28,508.715c0.526-3.881,1.291-21.229,5.95-24.755      c6.283-4.763,17.747-11.685,21.14-12.594c8.842-2.364,19.047-0.809,29.464,5.32l277.402,160.753      c26.68,15.703,44.681,55.557,40.157,88.933l-42.043,318.149c-1.579,11.656-5.704,20.994-11.531,27.537      c-3.944,4.428-13.167,10.625-20.854,14.598c-7.947,4.111-19.131-7.139-24.174-10.107L772.396,915.795      c-26.717-15.718-44.687-55.558-40.163-88.929L774.28,508.715z"></path>
				<path fill-rule="evenodd" clip-rule="evenodd" fill="#FFFFFF" d="M764.515,515.536c4.522-33.376,29.844-47.749,56.552-32.03      l275.852,161.063c26.681,15.701,44.682,55.556,40.158,88.931l-42.043,318.15c-4.523,33.371-29.875,47.729-56.559,32.027      L762.629,922.614c-26.715-15.716-44.685-55.557-40.163-88.927L764.515,515.536z"></path>
				<g>
					<linearGradient id="SVGID_22_" gradientUnits="userSpaceOnUse" x1="996.6187" y1="566.3179" x2="944.6532" y2="640.1982">
						<stop offset="0" style="stop-color:#6D6AFE"></stop>
						<stop offset="1" style="stop-color:#3FB0F7"></stop>
					</linearGradient>
					<path fill-rule="evenodd" clip-rule="evenodd" fill="url(#SVGID_22_)" d="M764.515,515.536       c4.522-33.376,29.844-47.749,56.554-32.03l275.85,161.063c26.681,15.701,44.682,55.556,40.158,88.931l-4.306,31.607       L760.154,547.546L764.515,515.536z"></path>
					<g>
						<path fill-rule="evenodd" clip-rule="evenodd" fill="#FFFFFF" d="M808.863,516.783c6.076,1.44,10.718,8.72,10.366,16.26        c-0.353,7.539-5.563,12.482-11.64,11.041s-10.718-8.72-10.365-16.26C797.576,520.286,802.787,515.342,808.863,516.783z"></path>
						<path fill-rule="evenodd" clip-rule="evenodd" fill="#FFFFFF" d="M841.292,536.999c6.076,1.441,10.718,8.722,10.366,16.26        c-0.353,7.539-5.563,12.481-11.64,11.041s-10.718-8.72-10.365-16.258C830.004,540.501,835.215,535.559,841.292,536.999z"></path>
						<path fill-rule="evenodd" clip-rule="evenodd" fill="#FFFFFF" d="M873.721,557.215c6.075,1.44,10.716,8.721,10.365,16.26        c-0.353,7.539-5.563,12.483-11.639,11.041c-6.077-1.441-10.718-8.72-10.366-16.259        C862.432,560.718,867.644,555.775,873.721,557.215z"></path>
					</g>
				</g>
				<g>
					<g>
						<g>
							<linearGradient id="SVGID_23_" gradientUnits="userSpaceOnUse" x1="829.8247" y1="660.229" x2="817.6833" y2="677.4072">
								<stop offset="0" style="stop-color:#6D6AFE"></stop>
								<stop offset="1" style="stop-color:#3FB0F7"></stop>
							</linearGradient>
							<path opacity="0.2" fill-rule="evenodd" clip-rule="evenodd" fill="url(#SVGID_23_)" d="M823.028,610.752         c28.163,6.677,49.672,40.416,48.043,75.356c-1.631,34.94-25.782,57.854-53.943,51.175         c-28.163-6.677-49.672-40.416-48.042-75.356S794.868,604.073,823.028,610.752z"></path>
							<linearGradient id="SVGID_24_" gradientUnits="userSpaceOnUse" x1="839.7183" y1="659.1265" x2="802.5095" y2="687.34">
								<stop offset="0" style="stop-color:#6D6AFE"></stop>
								<stop offset="1" style="stop-color:#3FB0F7"></stop>
							</linearGradient>
							<path fill-rule="evenodd" clip-rule="evenodd" fill="url(#SVGID_24_)" d="M821.669,639.907         c15.184,3.601,26.778,21.791,25.901,40.629c-0.88,18.838-13.9,31.192-29.084,27.592         c-15.184-3.602-26.779-21.792-25.902-40.629C793.464,648.661,806.486,636.307,821.669,639.907z"></path>
						</g>
						<g>
							<path opacity="0.2" fill-rule="evenodd" clip-rule="evenodd" fill="#955CF1" d="M888.004,678.549         c1.006-7.423,6.626-10.531,12.553-6.927l180.303,103.93c5.92,3.6,9.912,12.551,8.906,19.974l-1.952,14.683         c-1.006,7.421-6.632,10.526-12.552,6.928L894.959,713.205c-5.928-3.603-9.912-12.551-8.906-19.973L888.004,678.549z"></path>
							<path opacity="0.2" fill-rule="evenodd" clip-rule="evenodd" fill="#955CF1" d="M880.833,732.556         c0.595-4.382,3.913-6.219,7.413-4.09l106.471,61.372c3.496,2.125,5.852,7.412,5.259,11.795l-1.151,8.669         c-0.596,4.383-3.917,6.216-7.414,4.091l-106.47-61.372c-3.499-2.128-5.853-7.412-5.26-11.795L880.833,732.556z"></path>
						</g>
					</g>
					<g>
						<path opacity="0.2" fill-rule="evenodd" clip-rule="evenodd" fill="#955CF1" d="M760.487,746.325        c0.73-5.405,4.824-7.669,9.14-5.043l311.384,178.645c4.311,2.621,7.219,9.141,6.486,14.547l-0.97,7.08        c-0.732,5.406-4.83,7.668-9.142,5.045L766.002,767.954c-4.316-2.623-7.221-9.141-6.486-14.546L760.487,746.325z"></path>
						<path opacity="0.2" fill-rule="evenodd" clip-rule="evenodd" fill="#955CF1" d="M753.977,798.723        c0.73-5.405,4.824-7.669,9.14-5.043L1074.5,972.325c4.31,2.619,7.217,9.139,6.485,14.546l-0.969,7.08        c-0.732,5.406-4.83,7.666-9.144,5.045L759.493,820.352c-4.318-2.625-7.221-9.141-6.486-14.546L753.977,798.723z"></path>
						<path opacity="0.2" fill-rule="evenodd" clip-rule="evenodd" fill="#955CF1" d="M747.157,848.638        c0.731-5.405,4.823-7.669,9.14-5.045l311.384,178.645c4.311,2.621,7.217,9.141,6.486,14.547l-0.969,7.08        c-0.733,5.404-4.83,7.668-9.144,5.045L752.673,870.266c-4.319-2.625-7.221-9.143-6.487-14.547L747.157,848.638z"></path>
					</g>
				</g>
			</g>
		</g>
		<g>
			<g>
				<path fill-rule="evenodd" clip-rule="evenodd" fill="#D0E7FF" d="M1149.482,479.746c0.987-6.925-3.62-12.262-0.614-16.847      c3.248-4.957,14.293-8.505,19.068-10.229c6.774-2.442,14.75-1.647,22.874,3.001l331.201,189.361      c19.336,11.064,32.228,39.822,28.761,64.17l-37.176,259.851c-1.699,11.93-7.015,20.606-14.27,25.05      c-4.433,2.715-16.569,7.906-22.066,7.238c-3.867-0.469-0.926-5.885-4.998-8.213l-331.195-189.363      c-19.361-11.075-32.232-39.822-28.766-64.168L1149.482,479.746z"></path>
				<linearGradient id="SVGID_25_" gradientUnits="userSpaceOnUse" x1="1345.9722" y1="647.168" x2="1291.0471" y2="830.2495">
					<stop offset="0" style="stop-color:#6D6AFE"></stop>
					<stop offset="1" style="stop-color:#3FB0F7"></stop>
				</linearGradient>
				<path fill-rule="evenodd" clip-rule="evenodd" fill="url(#SVGID_25_)" d="M1139.558,483.705      c3.467-24.349,21.971-35.153,41.328-24.076l331.2,189.361c19.336,11.064,32.229,39.822,28.762,64.17l-37.176,259.851      c-3.468,24.345-21.994,35.138-41.334,24.075l-331.197-189.363c-19.359-11.075-32.23-39.822-28.765-64.169L1139.558,483.705z"></path>
			</g>
			<g>
				<path fill-rule="evenodd" clip-rule="evenodd" fill="#6D6AFD" d="M1113.84,755.463c0.301-2.113,1.903-3.016,3.577-2.008      l367.326,210.624c1.673,1.006,2.788,3.539,2.487,5.654l-0.975,6.412c-0.3,2.113-1.904,3.014-3.576,2.008l-367.327-210.624      c-1.674-1.007-2.788-3.539-2.487-5.654L1113.84,755.463z"></path>
				<path fill-rule="evenodd" clip-rule="evenodd" fill="#B269EB" d="M1114.017,755.665c0.291-2.04,1.836-2.91,3.45-1.938      l148.165,84.931c1.614,0.971,2.688,3.415,2.399,5.453l-0.939,6.185c-0.291,2.038-1.837,2.907-3.451,1.938l-148.164-84.933      c-1.616-0.971-2.688-3.415-2.398-5.453L1114.017,755.665z"></path>
			</g>
			<g>
				<linearGradient id="SVGID_26_" gradientUnits="userSpaceOnUse" x1="1304.0483" y1="736.5103" x2="1329.251" y2="659.0106">
					<stop offset="0" style="stop-color:#965CF2"></stop>
					<stop offset="1" style="stop-color:#FF8ADC"></stop>
				</linearGradient>
				<path fill-rule="evenodd" clip-rule="evenodd" fill="url(#SVGID_26_)" d="M1259.229,630.637      c0.825-5.794,5.227-8.364,9.833-5.729l101.962,58.321c4.601,2.633,7.667,9.474,6.843,15.268l-13.758,97.018      c-0.825,5.792-5.233,8.361-9.836,5.729l-101.96-58.321c-4.606-2.635-7.668-9.475-6.844-15.268L1259.229,630.637z"></path>
				<linearGradient id="SVGID_27_" gradientUnits="userSpaceOnUse" x1="1300.0532" y1="732.8545" x2="1323.024" y2="693.7313">
					<stop offset="0" style="stop-color:#6D6AFE"></stop>
					<stop offset="1" style="stop-color:#3FB0F7"></stop>
				</linearGradient>
				<path fill-rule="evenodd" clip-rule="evenodd" fill="url(#SVGID_27_)" d="M1317.396,672.855      c-17.651-10.098-34.505-0.261-37.668,21.942c-3.164,22.221,8.562,48.405,26.215,58.502c17.634,10.085,34.505,0.26,37.668-21.964      C1346.775,709.134,1335.032,682.942,1317.396,672.855z"></path>
				<polygon fill-rule="evenodd" clip-rule="evenodd" fill="#FFFFFF" points="1301.064,683.638 1295.493,723.826 1329.543,724.749           "></polygon>
			</g>
		</g>
		<g>
			<linearGradient id="SVGID_28_" gradientUnits="userSpaceOnUse" x1="894.1978" y1="505.9355" x2="888.9607" y2="503.5141">
				<stop offset="0" style="stop-color:#FF8A78"></stop>
				<stop offset="1" style="stop-color:#FFA799"></stop>
			</linearGradient>
			<path fill-rule="evenodd" clip-rule="evenodd" fill="url(#SVGID_28_)" d="M904.465,478.132c-2.892,4.834-1.368,15.3-2.311,20.28     c-0.738,3.906-2.915,11.355-4.428,14.543c-0.609,1.285-19.813,18.342-20.927,17.483c-2.534-1.953-4.178-15.421-0.854-19.338     c3.387-3.993,6.133-7.74,6.695-10.946c0.575-3.266,0.384-13.857,1.772-15.499c3.151-3.724,6.443-4.904,7.851-9.55     L904.465,478.132z"></path>
			<linearGradient id="SVGID_29_" gradientUnits="userSpaceOnUse" x1="925.8423" y1="454.1108" x2="914.72" y2="334.4748">
				<stop offset="0" style="stop-color:#965CF2"></stop>
				<stop offset="1" style="stop-color:#FF8ADC"></stop>
			</linearGradient>
			<path fill-rule="evenodd" clip-rule="evenodd" fill="url(#SVGID_29_)" d="M941.831,412.965c0.291-1.02,0.524-2.137,0.723-3.375     c5.001-20.681,10.081-56.071,9.43-76.573c-0.498-15.656-8.118-28.911-26.488-23.81c-5.646,1.567-12.178,5.86-13.014,13.293     c-1,8.901,0.326,23.678,1.168,38.777c0.673,12.067,0.614,33.829,1.075,42.652c-0.079,0.269-0.157,0.542-0.229,0.823     c-5.878,11.709-19.572,49.939-22.439,62.345c-0.479,2.071-0.034,4.301-0.051,5.734c-0.013,1.206-0.479,2.687-1.485,4.607     c4.16,3.594,7.844,5.329,12.592,6.488c0.507-1.271,1.85-3.428,2.574-4.538c0.794-1.216,4.474-2.367,5.906-4.083     c7.611-9.118,27.697-50.812,30.154-61.9C941.779,413.26,941.805,413.113,941.831,412.965z"></path>
		</g>
		<g>
			<path opacity="0.3" fill-rule="evenodd" clip-rule="evenodd" fill="#955CF1" d="M648.397,1478.378l166.752-94.969     c18.179-8.307,44.197-14.92,62.718-5.279c16.874,8.783,44.675,26.756,56.966,33.766c9.337,5.326,41.747,24.742,21.561,35.719     c-59.382,32.291-118.15,68.605-178.449,101.408c-11.404,6.203-28.086,8.445-45.6,6.992c-17.438-1.451-35.322-6.529-49.389-14.711     c-10.021-5.828-19.877-11.564-29.571-17.211c-13.079-7.615-20.015-16.621-20.701-24.947     C632.012,1491.011,637.238,1483.472,648.397,1478.378z"></path>
			<g>
				<g>
					<g>
						<path fill-rule="evenodd" clip-rule="evenodd" fill="#FFFFFF" d="M709.843,1473.347c3.263-0.072,14.268-10.414,24.688-5.193        c12.518,6.271,36.285,0.717,48.279,3.598c2.137,0.512,6.313-1.057,7.138,0.406c2.588,4.596,5.087,11.469-1.27,15.965        c-4.677,3.309-14.688,7.688-21.256,10.016c-6.967,2.469-18.896,6.359-26.891,7.611c-8.854,1.385-12.894,1.955-16.208,4.514        c-4.738,2.387-9.633,3.41-12.363,2.975c-5.842-0.93-12.648-4.352-15.765-11.006c-0.996-2.127-1.024-11.422,0.123-17.451        c0.904-4.758,3.499-10.176,5.575-15.236L709.843,1473.347z"></path>
						<path fill-rule="evenodd" clip-rule="evenodd" fill="#FFA495" d="M735.444,1451.103c-3.962,9.506-2.744,24.217-12.128,29.324        c-6.272,3.412-16.097,3.443-20.378-6.305c-2.387-5.438,0.784-14.725,0.081-26.662L735.444,1451.103z"></path>
						<path fill-rule="evenodd" clip-rule="evenodd" fill="#193161" d="M738.054,1465.828c7.19,2.09,27.044,0.693,39.595,1.709        c5.395,0.436,10.232,0.396,12.754,5.293c2.321,4.506,1.104,8.367-4.149,12.084c-4.678,3.309-12.609,7.082-19.177,9.41        c-6.968,2.467-18.895,6.359-26.889,7.611c-8.856,1.383-12.896,1.955-16.209,4.512c-4.737,2.385-9.633,3.412-12.364,2.975        c-5.842-0.928-12.647-5.043-15.765-11.697c-0.994-2.129-1.024-10.729,0.124-16.76c0.219-1.148,0.536-2.338,0.921-3.551        c0.988-9.445,4.107-13.264,7.047-11.646c4.025,2.213,5.545,6.197,7.076,9.469c1.299,2.773,3.236,4.512,5.47,5.215        c4.813,1.518,9.207-1.168,12.052-5.297c1.591-2.764,2.535-6.1,3.302-9.57c0.015-0.322,0.021-0.643,0.014-0.961        c0.943-8.256,4.961-7.537,4.351-5.795C735.645,1460.427,735.875,1464.144,738.054,1465.828z"></path>
						<path fill-rule="evenodd" clip-rule="evenodd" fill="#FFFFFF" d="M787.894,1471.439c-0.096,3.193,4.795,3.494,3.381,9.104        c2.353-2.305-0.93-8.922-2.383-9.928C788.298,1470.203,787.792,1470.033,787.894,1471.439z"></path>
					</g>
					<g>
						<path fill-rule="evenodd" clip-rule="evenodd" fill="#FFFFFF" d="M791.645,1440.617c3.039-1.191,9.816-14.689,21.396-13.371        c4.673,0.531,12.186-0.689,19.81-2.855c12.158-3.457,29.102-14.324,31.99-12.547c6.3,3.875,6.803,10.941,2.383,17.352        c-3.256,4.717-9.404,10.986-14.771,15.432c-5.691,4.717-13.768,11.93-20.845,15.855c-6.687,3.709-8.907,3.381-13.667,9.814        c-3.626,3.869-7.87,6.172-10.584,6.699c-6.952,1.359-17.046-3.104-20.68-7.764c-2.311-7.479-6.32-14.557-3.751-25.779        L791.645,1440.617z"></path>
						<path fill-rule="evenodd" clip-rule="evenodd" fill="#FFA495" d="M807.706,1408.765c-0.188,10.297,6.354,23.527-0.495,31.729        c-4.579,5.48-13.704,9.121-21.269,1.631c-4.22-4.18-4.686-13.982-9.729-24.824L807.706,1408.765z"></path>
						<path fill-rule="evenodd" clip-rule="evenodd" fill="#193161" d="M829.731,1421.318c0.692-0.182,1.385-0.371,2.08-0.568        c12.158-3.457,28.406-11.834,31.295-10.055c6.301,3.875,7.498,8.449,3.076,14.859c-3.256,4.717-9.404,10.986-14.771,15.432        c-5.69,4.717-13.769,11.93-20.845,15.855c-6.688,3.709-8.907,3.381-13.666,9.814c-3.628,3.869-7.873,6.172-10.585,6.699        c-6.952,1.357-17.352-3.146-20.984-7.807c-1.719-5.566-4.074-10.867-4.265-17.863c-1.012-9.158-0.383-13.816,3.602-13.701        c7.411,0.217,10.468,4.121,13.529,6.031c6.594,4.111,11.008-1.201,12.087-7.771c0.198-2.756-0.125-5.699-0.604-8.686        c-0.104-0.305-0.218-0.607-0.341-0.9c-2.159-8.025,1.841-8.83,1.913-6.99c0.163,4.174,2.769,6.508,6.116,7.01        C821.385,1423.281,826.477,1421.597,829.731,1421.318z"></path>
						<path fill-rule="evenodd" clip-rule="evenodd" fill="#FFFFFF" d="M862.36,1411.72c1.29,2.922,5.832,1.086,6.974,6.756        c1.13-3.094-4.684-7.648-6.427-7.932C862.193,1410.429,861.662,1410.494,862.36,1411.72z"></path>
					</g>
					<g>
						<linearGradient id="SVGID_30_" gradientUnits="userSpaceOnUse" x1="789.5122" y1="1172.4712" x2="750.7808" y2="1357.7701">
							<stop offset="0" style="stop-color:#40457F"></stop>
							<stop offset="1" style="stop-color:#1E2353"></stop>
						</linearGradient>
						<path fill-rule="evenodd" clip-rule="evenodd" fill="url(#SVGID_30_)" d="M800.702,1130.656        c2.662,29.838,17.617,125.131,13.457,151.293c-6.255,39.338-4.471,86.865-4.4,128.619        c-1.057,17.543-25.177,26.711-32.197,15.564c-5.638-37.311-13.657-69.998-16.918-90.73        c-3.653-23.215-2.446-51.424,3.445-66.682c-2.417-16.668-13.782-59.668-23.275-89.467        c-3.427-10.752-22.838-45.492-2.746-80.027L800.702,1130.656z"></path>
						<linearGradient id="SVGID_31_" gradientUnits="userSpaceOnUse" x1="798.0405" y1="1409.4937" x2="783.496" y2="1430.3608">
							<stop offset="0" style="stop-color:#3773B9"></stop>
							<stop offset="1" style="stop-color:#003C76"></stop>
						</linearGradient>
						<path fill-rule="evenodd" clip-rule="evenodd" fill="url(#SVGID_31_)" d="M810.151,1399.367        c0.021,3.096-0.095,7.814-0.09,10.854c-1.056,17.543-25.479,27.059-32.5,15.912c-0.416-2.752-1.019-5.477-1.456-8.172        C785.546,1428.134,804.048,1414.917,810.151,1399.367z"></path>
						<path opacity="0.3" fill-rule="evenodd" clip-rule="evenodd" fill="#1E2353" d="M814.801,1264.195        c-7.864,39.451-30.111,92.15-42.256,131.816c-6.321-33.986-22.141-91.865-8.457-127.291        c-1.375-9.494-5.655-27.527-10.839-46.797c10.526-19.959,0.465-35.887,5.437-63.992c27.869-4.857-14.193-38.875,44.781-3.047        C808.745,1197.22,813.698,1223.841,814.801,1264.195z"></path>
					</g>
					<g>
						<linearGradient id="SVGID_32_" gradientUnits="userSpaceOnUse" x1="824.0396" y1="1193.3931" x2="691.959" y2="1373.5356">
							<stop offset="0" style="stop-color:#40457F"></stop>
							<stop offset="1" style="stop-color:#1E2353"></stop>
						</linearGradient>
						<path fill-rule="evenodd" clip-rule="evenodd" fill="url(#SVGID_32_)" d="M798.774,1301.613        c-16.077,36.395-45.739,107.795-61.517,152.465c-8.163,11.863-37.266,10.627-37.21-0.439        c6.426-37.346,13.978-94.945,27.384-127.701c4.104-10.021,19.245-34.145,24.7-41.301c4.242-16.484,9.558-61.004,13.661-85.094        c-3.681-19.934-19.759-53.264,11.134-82.23c12.464,8.865,51,14.41,68.475,4.537        C848.223,1200.589,828.895,1233.425,798.774,1301.613z"></path>
						<linearGradient id="SVGID_33_" gradientUnits="userSpaceOnUse" x1="723.5571" y1="1452.0376" x2="701.5743" y2="1457.6572">
							<stop offset="0" style="stop-color:#3773B9"></stop>
							<stop offset="1" style="stop-color:#003C76"></stop>
						</linearGradient>
						<path fill-rule="evenodd" clip-rule="evenodd" fill="url(#SVGID_33_)" d="M740.528,1446.291        c-0.704,1.951-2.102,5.896-2.763,7.764c-8.403,12.211-38.362,10.939-38.306-0.451c0.318-1.846,0.638-3.738,0.962-5.676        C707.564,1455.208,729.167,1455.306,740.528,1446.291z"></path>
					</g>
				</g>
				<g>
					<g>
						<linearGradient id="SVGID_34_" gradientUnits="userSpaceOnUse" x1="861.1597" y1="758.5522" x2="888.9675" y2="718.808">
							<stop offset="0" style="stop-color:#FF8A78"></stop>
							<stop offset="1" style="stop-color:#FFA799"></stop>
						</linearGradient>
						<path fill-rule="evenodd" clip-rule="evenodd" fill="url(#SVGID_34_)" d="M897.344,694.301        c-1.145,2.412-2.24,4.851-3.434,7.238l-4.918,9.835c-1.048-4.822-4.897-6.667-7.857-4.236        c-0.895,0.733-1.799,1.811-2.396,3.216c-0.471-1.316-4.195-4.28-9.232,2.875c-3.142-0.343-4.796,0.989-6.121,3.528        c-0.793,1.521-1.479,3.341-2.11,5.155c-0.897,2.57-1.484,4.752-1.469,6.987c0.032,4.743,0.237,9.887,0.102,15.552        c-0.146,6.148-7.12,13.936-10.908,18.421l22.827,7.237c3.488-4.382,5.374-7.549,8.888-11.112        c3.582-3.628,8.11-4.063,11.526-6.863c1.914-1.568,3.015-3.645,6.262-8.246c2.69-3.812,4.163-7.933,6.729-12.101        c2.499-4.318,2.349-3.365,2.603-8.209c0.195-3.741,1.407-7.433,1.713-9.699c-4.689-2.338-8.386,3.452-8.352,9.093        c-2.688,1.51-4.447,5.213-5.058,6.866c-3.728-4.875-1.507-6.914,0-13.176c2.372-4.353,4.062-8.179,5.372-12.566        c0.728-1.929,1.455-3.926,2.237-6.085c1.062-3.507-0.296-5.999-1.356-6.688C901.512,690.752,899.25,691.012,897.344,694.301z"></path>
						<path fill-rule="evenodd" clip-rule="evenodd" fill="#FF8978" d="M906.855,713.391c-3.334,0.481-5.687,5.079-5.659,9.583        c-2.515,1.413-4.219,4.748-4.926,6.524c1.366-1.756,4.855-5.523,5.996-5.972C902.62,719.189,904.167,715.631,906.855,713.391        L906.855,713.391z M889.417,710.528l-0.424,0.847c-0.26-1.197-0.693-2.211-1.242-3.022c-0.137,3.286-1.956,5.643-3.254,7.24        C887.442,714.269,888.625,712.687,889.417,710.528L889.417,710.528z M878.709,710.28c-0.164-0.384-0.58-0.878-1.206-1.229        c-0.605,2.904-1.284,4.262-2.564,6.541C877.025,713.962,878.039,712.195,878.709,710.28L878.709,710.28z M869.614,713.083        l-0.106,0.148c-0.527-0.057-1.013-0.066-1.461-0.033c-0.449,3.165-1.104,5.125-2.665,7.313        C867.795,718.155,869.021,716.546,869.614,713.083z"></path>
					</g>
					<linearGradient id="SVGID_35_" gradientUnits="userSpaceOnUse" x1="803.2222" y1="857.9097" x2="835.3698" y2="918.2303">
						<stop offset="0" style="stop-color:#A77EF7"></stop>
						<stop offset="1" style="stop-color:#5E65D6"></stop>
					</linearGradient>
					<path fill-rule="evenodd" clip-rule="evenodd" fill="url(#SVGID_35_)" d="M811.142,826.186       c11.487-20.02,20.483-45.094,36.537-65.426c1.339-1.695,4.483-2.992,5.64-4.776c1.675-2.589,3.346-5.135,5.005-7.626       c7.524,0.134,16.767,4.008,23.106,10.415c-0.9,2.681-1.784,5.351-2.656,8.004c-1.016,3.093,0.933,9.705,0.052,12.798       c-7.909,27.811-16.467,51.149-28.147,76.683c-15.924,20.537-86.674,152.373-123.666,104.536       c-3.33-17.016,1.178-31.172,9.736-44.943c4.738-7.623,11.943-14.271,16.791-19.298       C765.171,884.487,793.678,844.195,811.142,826.186z"></path>
				</g>
				<linearGradient id="SVGID_36_" gradientUnits="userSpaceOnUse" x1="796.9604" y1="955.6294" x2="777.8752" y2="1122.9001">
					<stop offset="0" style="stop-color:#A77EF7"></stop>
					<stop offset="1" style="stop-color:#5E65D6"></stop>
				</linearGradient>
				<path fill-rule="evenodd" clip-rule="evenodd" fill="url(#SVGID_36_)" d="M732.424,1023.748      c2.591,23.346-4.431,46.305,2.717,67.617c0.319,2.203,0.522,10.844,0.9,13.193c4.706,27.609,63.106,55.549,111.813,29.057      c0.269-3.422-0.042-7.002,0.224-13.342c-0.9-5.92,1.657-12.27,1.641-15.881c-0.069-15.023-4.746-22.707-2.504-39.428      c4.564-34.016,23.408-66.705,12.984-93.466c-2.237-5.746-6.158-8.529-10.599-12.096c-11.511-9.248-71.044-39.563-89.09-41.701      C708.114,910.911,729.614,998.421,732.424,1023.748z"></path>
				<path opacity="0.35" fill-rule="evenodd" clip-rule="evenodd" fill="#6266D7" d="M852.491,1040.306      c6.756-24.996,15.582-48.594,7.709-68.808c-2.237-5.746-6.158-8.529-10.599-12.096c-11.51-9.248-9.985,15.619-28.03,13.48      C818.095,1006.113,834.524,1036.339,852.491,1040.306z"></path>
				<g>
					<path fill-rule="evenodd" clip-rule="evenodd" fill="#FFA698" d="M815.75,907.255c-0.613,8.3-0.213,20.251,1.326,28.667       c-17.063-0.555-40.775-5.018-43.365-17.723c0.121-1.523,0.23-3.068,0.308-4.584c-0.231-0.208-0.463-0.392-0.697-0.547       c-6.117-4.068-16.239-7.087-22.745-14.527c-10.398-11.889-15.923-27.862-7.764-43.938       c14.901-29.357,50.942-29.856,71.019-6.118c3.919,4.636,1.048,9.436,3.279,13.913c0.437,0.876,2.038,1.264,3.899,2.799       c2.571,2.123,10.061,20.475,9.865,30.055c-0.077,3.857-8.942,9.292-12.877,11.423       C817.662,906.856,816.819,907.052,815.75,907.255z"></path>
					<linearGradient id="SVGID_37_" gradientUnits="userSpaceOnUse" x1="797.9517" y1="906.9224" x2="792.0109" y2="921.8583">
						<stop offset="0" style="stop-color:#FF8A78"></stop>
						<stop offset="1" style="stop-color:#FFA799"></stop>
					</linearGradient>
					<path fill-rule="evenodd" clip-rule="evenodd" fill="url(#SVGID_37_)" d="M815.75,907.255       c-0.613,8.3-0.213,20.251,1.326,28.667c-17.063-0.555-40.775-5.018-43.365-17.723c0.121-1.523,0.23-3.068,0.308-4.584       c-0.231-0.208-0.492-0.354-0.697-0.547c-12.967-12.139,4.377-26.051,26.298-14.064       C803.189,904.686,808.714,907.631,815.75,907.255z"></path>
					<linearGradient id="SVGID_38_" gradientUnits="userSpaceOnUse" x1="818.0903" y1="865.1069" x2="809.3268" y2="881.9338">
						<stop offset="0" style="stop-color:#FFB89E"></stop>
						<stop offset="1" style="stop-color:#FFA799"></stop>
					</linearGradient>
					<path fill-rule="evenodd" clip-rule="evenodd" fill="url(#SVGID_38_)" d="M830.875,895.251       c-0.077,1.686-7.061,4.227-9.982,4.621c1.991-18.134-15.269-20.905-12.668-38.611c1.562-10.64-9.381-14.489-5.087-22.279       c3.871,2.537,7.485,5.711,10.693,9.503c3.919,4.636,1.048,9.436,3.279,13.913c0.437,0.876,2.038,1.264,3.899,2.799       C823.582,867.319,831.32,885.679,830.875,895.251z"></path>
					<g>
						<path fill-rule="evenodd" clip-rule="evenodd" fill="#FFB49C" d="M807.358,887.884c-0.335-4.06-1.979-4.84-3.339-3.761        c-1.493,1.185-2.773,4.698-2.363,8.875c0.661,6.738,6.906,12.772,11.211,7.324c-4.705,2.495-6.925-3.538-7.124-7.797        C805.607,889.634,806.338,887.206,807.358,887.884z"></path>
						<path fill-rule="evenodd" clip-rule="evenodd" fill="#FF9D8E" d="M805.859,890.478c2.505,1.897,3.661,3.177,3.621,4.242        c-0.025,0.74-0.646,1.854-2.847,1.075C805.791,894.07,805.663,892.173,805.859,890.478z"></path>
					</g>
					<path fill-rule="evenodd" clip-rule="evenodd" fill="#726CDE" d="M773.504,917.745c-5.05,1.557-9.767,6.75-8.844,10.08       c5.027,20.541,42.676,25.127,66.089,20.18c0.282-0.059-8.764-12.021-13.245-13.479       C802.77,935.971,778.049,929.874,773.504,917.745z"></path>
					<g>
						<path fill-rule="evenodd" clip-rule="evenodd" fill="#562E65" d="M771.694,916.471c-6.242-6.661-16.805-9.842-23.583-17.591        c-6.685-7.644-14.004-19.375-9.535-31.424c-7.874-24.758,19.032-44.391,41.69-48.854        c16.217-3.194,25.914,14.197,18.865,25.961c6.078,6.8,5.875,15.787,5.45,18.097c-1.295,7.067-1.114,7.959,1.147,13.252        c1.784,4.178,6.234,14.276-1.818,7.881c-5.205-4.133-8.846,4.998-7.084,11.311c0.803,2.875,1.783,6.502,1.131,12.205        C796.444,920.561,775.167,920.178,771.694,916.471z"></path>
						<linearGradient id="SVGID_39_" gradientUnits="userSpaceOnUse" x1="799.522" y1="824.1812" x2="760.8192" y2="846.3477">
							<stop offset="0" style="stop-color:#8A4791"></stop>
							<stop offset="1" style="stop-color:#562E65"></stop>
						</linearGradient>
						<path fill-rule="evenodd" clip-rule="evenodd" fill="url(#SVGID_39_)" d="M746.088,856.247        c-5.368-23.978,26.157-36.117,38.492-36.401c12.478-0.288,22.258,20.246,7.461,27.162        C781.952,851.723,761.971,842.5,746.088,856.247z"></path>
					</g>
				</g>
				<g>
					<linearGradient id="SVGID_40_" gradientUnits="userSpaceOnUse" x1="995.688" y1="924.0776" x2="1021.6229" y2="889.8163">
						<stop offset="0" style="stop-color:#FF8A78"></stop>
						<stop offset="1" style="stop-color:#FFA799"></stop>
					</linearGradient>
					<path fill-rule="evenodd" clip-rule="evenodd" fill="url(#SVGID_40_)" d="M996.048,890.202       c-0.738,1.833-0.769,2.894-1.017,4.846c-1.23,2.98-1.939,5.284-2.348,7.354c-0.766,3.882-0.479,6.942-0.595,12.105       c-0.067,2.988,0.415,4.531,1.055,7.441c-3.027,5.922-7.792,9.563-12.24,14.447l14.415,10.994       c6.08-4.01,10.83-8.223,16.065-11.709c4.251-1.676,5.745-2.631,7.017-3.959c3.337-3.48,13.166-13.82,13.73-17.884       c0.625-4.512-0.577-14.942-1.598-20.675c-2.604-14.607-8.168-29.953-9.124-23.177c-1.392,1.622-0.254,14.821-1.134,16.778       c-3.411,3.929-5.039,5.543-9.313,10.226c-2.65,1.51-4.396,3.085-5.677,3.432c-1.475,0.397-2.286-0.63-2.338-1.925       c-0.057-1.448,0.871-4.014,1.633-7.786c-0.014-6.258-1.555-9.806-4.9-9.477c-1.725,0.168-2.713,1.084-3.143,2.927       C996.196,885.621,996.288,887.643,996.048,890.202z"></path>
					<linearGradient id="SVGID_41_" gradientUnits="userSpaceOnUse" x1="914.9224" y1="936.7944" x2="922.7772" y2="1096.1493">
						<stop offset="0" style="stop-color:#A77EF7"></stop>
						<stop offset="1" style="stop-color:#5E65D6"></stop>
					</linearGradient>
					<path fill-rule="evenodd" clip-rule="evenodd" fill="url(#SVGID_41_)" d="M850.774,951.499       c19.846,3.061,58.132,24.889,84.555,36.728c14.733-21.001,34.068-46.167,45.997-54.638c1.371-0.973,4.861-2.945,5.933-4.258       c1.73-2.121,3.419-4.297,5.05-6.543c7.452,1.035,18.249,10.342,18.106,14.736c-1.201,2.197-2.424,4.494-3.664,6.865       c-0.848,1.621-0.538,5.176-1.039,7c-4.048,14.703-26.354,48.667-36.753,63.817c-6.009,8.756-8.121,13.893-12.19,16.51       c-6.527,4.195-15.288,1.904-32.168-2.34c-14.204-3.57-60.065-11.912-81.168-23.049c-14.878-7.85-26.295-21.995-20.385-38.276       C826.838,957.612,838.013,949.528,850.774,951.499z"></path>
				</g>
			</g>
		</g>
	</g>
	<g>
		<path opacity="0.5" fill-rule="evenodd" clip-rule="evenodd" fill="#FFFFFF" d="M1396.816,345.334    c-12.959-7.185-26.707,2.505-26.567,21.256c0.063,9.709,4.18,19.699,10.676,25.964c1.708,1.642,3.477,2.948,5.252,3.935    c12.937,7.169,26.619-2.516,26.521-21.18c-0.021-9.726-4.123-19.761-10.588-26.005    C1400.385,347.647,1398.609,346.329,1396.816,345.334L1396.816,345.334z M1384.328,405.294c-2.386-1.321-4.751-3.073-7.05-5.273    c-8.755-8.403-14.235-21.861-14.364-34.923c-0.154-25.151,18.295-38.224,35.716-28.57c2.422,1.343,4.817,3.119,7.146,5.371    c8.725,8.382,14.204,21.842,14.262,34.908C1420.145,401.891,1401.722,414.937,1384.328,405.294L1384.328,405.294z     M1443.665,383.922c3.031,1.685,4.84,6.096,4.018,9.896l-3.167,14.735c-0.81,3.755-3.923,5.439-6.959,3.759l-1.552-0.861    c-2.323-1.286-4.776-0.588-6.136,1.693c-0.882,1.473-1.822,2.866-2.818,4.185c-1.581,2.07-1.839,5.382-0.631,8.34l0.815,1.998    c1.562,3.807,0.625,8.146-2.066,9.604l-10.668,5.763c-1.365,0.738-2.914,0.624-4.323-0.155c-1.405-0.78-2.671-2.227-3.462-4.163    l-0.825-1.951c-0.771-1.88-2.008-3.322-3.43-4.111c-0.815-0.45-1.688-0.682-2.561-0.656c-1.509,0.005-3.042-0.052-4.562-0.192    c-2.437-0.232-4.471,1.494-5.092,4.375l-0.408,1.922c-0.81,3.753-3.926,5.438-6.963,3.76l-11.893-6.596    c-3.037-1.684-4.84-6.096-4.035-9.854l0.414-1.917c0.62-2.882-0.313-6.249-2.323-8.484c-1.282-1.411-2.476-2.868-3.663-4.366    c-0.676-0.887-1.45-1.57-2.268-2.023c-1.414-0.786-2.947-0.878-4.28-0.161l-1.395,0.718c-1.37,0.738-2.918,0.629-4.329-0.15    c-1.405-0.78-2.669-2.23-3.46-4.163l-6.181-15.107c-1.556-3.806-0.621-8.149,2.065-9.6l1.409-0.764    c2.092-1.13,3.161-3.993,2.717-7.184c-0.285-2.025-0.484-4.054-0.614-6.089c-0.191-3.141-1.854-6.122-4.178-7.407l-1.551-0.862    c-3.036-1.679-4.838-6.088-4.034-9.85l3.172-14.734c0.817-3.801,3.936-5.485,6.968-3.801l1.55,0.858    c2.33,1.291,4.776,0.593,6.136-1.69c0.883-1.477,1.822-2.87,2.823-4.182c1.571-2.032,1.829-5.341,0.616-8.306l-0.816-1.995    c-1.544-3.846-0.62-8.148,2.076-9.642l10.671-5.769c1.368-0.732,2.916-0.624,4.322,0.155c1.41,0.78,2.67,2.232,3.465,4.163    l0.815,1.994c0.771,1.881,2.011,3.326,3.431,4.111c0.811,0.454,1.684,0.686,2.561,0.661c1.519-0.046,3.054,0.01,4.566,0.149    c2.433,0.275,4.461-1.451,5.082-4.331l0.414-1.923c0.814-3.799,3.934-5.483,6.966-3.799l11.9,6.595    c3.032,1.683,4.838,6.094,4.017,9.889l-0.412,1.921c-0.62,2.882,0.313,6.25,2.304,8.425c1.28,1.41,2.51,2.887,3.687,4.426    c0.677,0.889,1.451,1.569,2.268,2.018c1.416,0.786,2.948,0.879,4.277,0.162l1.408-0.76c1.369-0.738,2.918-0.625,4.323,0.155    c1.409,0.78,2.671,2.226,3.466,4.163l6.176,15.106c1.551,3.848,0.625,8.15-2.07,9.643l-1.408,0.759    c-2.092,1.131-3.162,3.996-2.708,7.147c0.278,2.023,0.486,4.054,0.616,6.083c0.189,3.146,1.848,6.121,4.178,7.411    L1443.665,383.922z"></path>
		<linearGradient id="SVGID_42_" gradientUnits="userSpaceOnUse" x1="113.3706" y1="354.3804" x2="150.0741" y2="292.65">
			<stop offset="0" style="stop-color:#6D6AFE"></stop>
			<stop offset="1" style="stop-color:#3FB0F7"></stop>
		</linearGradient>
		<path fill-rule="evenodd" clip-rule="evenodd" fill="url(#SVGID_42_)" d="M179.428,310.575    c-1.336,9.131-8.479,13.262-16.029,9.074c-7.686-4.26-12.637-15.095-11.301-24.227c1.33-9.066,8.449-13.025,16.135-8.765    C175.779,290.838,180.756,301.507,179.428,310.575L179.428,310.575z M137.995,391.679c1.337-9.124,8.457-13.083,16.144-8.824    c7.551,4.182,12.529,14.851,11.193,23.974s-8.484,13.257-16.036,9.075C141.61,411.646,136.66,400.804,137.995,391.679    L137.995,391.679z M90.831,313.621c-1.328,9.075-8.589,12.955-16.137,8.771c-7.5-4.159-12.523-14.848-11.195-23.917    c1.336-9.129,8.527-13.233,16.028-9.072C87.077,293.584,92.167,304.497,90.831,313.621L90.831,313.621z M169.938,275.041    c-12.846-7.127-25.176-0.474-27.452,15.059l-0.014,1.156l-44.782,7.048c-3.181-8.751-9.078-16.25-16.484-20.352    c-12.846-7.12-24.996-0.31-27.271,15.215c-2.252,15.367,6.211,33.724,19.06,40.844c7.407,4.11,14.472,3.612,19.546-0.56    l36.119,52.072l-0.275,0.833c-2.273,15.523,6.402,33.822,19.246,40.942c12.703,7.042,24.986,0.368,27.265-15.165    c2.249-15.361-6.343-33.853-19.053-40.901c-9.138-5.065-17.89-3.11-23.066,3.831l-34.213-49.86    c0.919-1.762,1.401-4.001,1.741-6.329c0.365-2.493,0.564-4.895,0.269-7.387l42.582-7.285c2.507,11.252,9.425,21.833,18.571,26.898    c12.701,7.041,24.994,0.309,27.272-15.223C191.268,300.345,182.639,282.082,169.938,275.041z"></path>
		<g>
			<linearGradient id="SVGID_43_" gradientUnits="userSpaceOnUse" x1="204.4043" y1="1342.9243" x2="231.9175" y2="1271.8843">
				<stop offset="0" style="stop-color:#965CF2"></stop>
				<stop offset="1" style="stop-color:#FF8ADC"></stop>
			</linearGradient>
			<polygon opacity="0.5" fill-rule="evenodd" clip-rule="evenodd" fill="url(#SVGID_43_)" points="101.424,1329.367      168.073,1219.273 201.732,1341.517 235.932,1299.886 278.542,1430.955    "></polygon>
			<path opacity="0.5" fill-rule="evenodd" clip-rule="evenodd" fill="#FF89DB" d="M222.652,1227.189     c9.155,2.27,17.347,12.967,18.294,23.895c0.948,10.93-5.705,17.949-14.859,15.68c-9.154-2.268-17.346-12.967-18.293-23.895     C206.844,1231.941,213.498,1224.921,222.652,1227.189z"></path>
		</g>
	</g>
</g>
</svg>